<svg width="38" height="30" viewBox="0 0 38 30" fill="none" xmlns="http://www.w3.org/2000/svg">
<path d="M31.8423 3.21457C29.3915 2.09276 26.8043 1.29697 24.1467 0.847534C23.783 1.49725 23.4549 2.16567 23.1613 2.85091C20.3304 2.42429 17.4515 2.42429 14.6206 2.85091C14.3275 2.1663 13.9986 1.49758 13.6352 0.847534C10.976 1.30098 8.38712 2.09888 5.93398 3.22111C1.06343 10.426 -0.256578 17.4523 0.403424 24.3795C3.25557 26.4866 6.44789 28.0891 9.84164 29.1173C10.6054 28.089 11.2813 26.9999 11.8628 25.8584C10.7592 25.4461 9.69402 24.9375 8.67963 24.3384C8.94699 24.1449 9.20781 23.9457 9.46022 23.7513C12.412 25.1394 15.6337 25.8591 18.8956 25.8591C22.1575 25.8591 25.3793 25.1394 28.331 23.7513C28.5863 23.9598 28.8471 24.1598 29.1107 24.3384C28.0944 24.9384 27.0274 25.448 25.9219 25.8612C26.5022 27.0019 27.1784 28.0911 27.9431 29.1173C31.3397 28.0932 34.5344 26.4914 37.3869 24.3823C38.1619 16.3492 36.0641 9.38736 31.8423 3.2155V3.21457ZM12.6995 20.1203C10.8597 20.1203 9.33963 18.4516 9.33963 16.3978C9.33963 14.3439 10.8073 12.6603 12.6929 12.6603C14.5794 12.6603 16.0874 14.343 16.0556 16.3978C16.0228 18.4516 14.5738 20.1203 12.6995 20.1203ZM25.0918 20.1203C23.2492 20.1203 21.7357 18.4516 21.7357 16.3978C21.7357 14.3439 23.2025 12.6603 25.0918 12.6603C26.9802 12.6603 28.4769 14.343 28.4451 16.3978C28.4124 18.4516 26.9662 20.1203 25.0918 20.1203Z" fill="#5865F2"/>
</svg>
