<svg width="34" height="46" viewBox="0 0 34 46" fill="none" xmlns="http://www.w3.org/2000/svg">
<mask id="mask0_830_9250" style="mask-type:alpha" maskUnits="userSpaceOnUse" x="0" y="0" width="34" height="46">
<path d="M21.2573 0.382568H3.75467C2.93644 0.38503 2.15243 0.711163 1.57385 1.28974C0.995267 1.86832 0.669134 2.65234 0.666672 3.47057V42.5919C0.668782 43.4104 0.99476 44.1947 1.57338 44.7736C2.15199 45.3525 2.93621 45.6788 3.75467 45.6812H30.5227C31.3411 45.6788 32.1254 45.3525 32.704 44.7736C33.2826 44.1947 33.6086 43.4104 33.6107 42.5919V12.7359L21.2573 0.382568Z" fill="white"/>
</mask>
<g mask="url(#mask0_830_9250)">
<path d="M21.2573 0.382568H3.75467C2.93644 0.38503 2.15243 0.711163 1.57385 1.28974C0.995267 1.86832 0.669134 2.65234 0.666672 3.47057V42.5919C0.668782 43.4104 0.99476 44.1947 1.57338 44.7736C2.15199 45.3525 2.93621 45.6788 3.75467 45.6812H30.5227C31.3411 45.6788 32.1254 45.3525 32.704 44.7736C33.2826 44.1947 33.6086 43.4104 33.6107 42.5919V12.7359L26.4053 7.58923L21.2573 0.382568Z" fill="#4285F4"/>
</g>
<mask id="mask1_830_9250" style="mask-type:alpha" maskUnits="userSpaceOnUse" x="0" y="0" width="34" height="46">
<path d="M21.2573 0.382568H3.75467C2.93644 0.38503 2.15243 0.711163 1.57385 1.28974C0.995267 1.86832 0.669134 2.65234 0.666672 3.47057V42.5919C0.668782 43.4104 0.99476 44.1947 1.57338 44.7736C2.15199 45.3525 2.93621 45.6788 3.75467 45.6812H30.5227C31.3411 45.6788 32.1254 45.3525 32.704 44.7736C33.2826 44.1947 33.6086 43.4104 33.6107 42.5919V12.7359L21.2573 0.382568Z" fill="white"/>
</mask>
<g mask="url(#mask1_830_9250)">
<path d="M22.16 11.8333L33.6107 23.2813V12.7373L22.16 11.8333Z" fill="url(#paint0_linear_830_9250)"/>
</g>
<mask id="mask2_830_9250" style="mask-type:alpha" maskUnits="userSpaceOnUse" x="0" y="0" width="34" height="46">
<path d="M21.2573 0.382568H3.75467C2.93644 0.38503 2.15243 0.711163 1.57385 1.28974C0.995267 1.86832 0.669134 2.65234 0.666672 3.47057V42.5919C0.668782 43.4104 0.99476 44.1947 1.57338 44.7736C2.15199 45.3525 2.93621 45.6788 3.75467 45.6812H30.5227C31.3411 45.6788 32.1254 45.3525 32.704 44.7736C33.2826 44.1947 33.6086 43.4104 33.6107 42.5919V12.7359L21.2573 0.382568Z" fill="white"/>
</mask>
<g mask="url(#mask2_830_9250)">
<path d="M8.90266 33.3266H25.3747V31.268H8.90266V33.3266ZM8.90266 37.4453H21.2573V35.3866H8.90266V37.4453ZM8.90266 23.032V25.0906H25.3747V23.032H8.90266ZM8.90266 29.2093H25.3747V27.1506H8.90266V29.2093Z" fill="#F1F1F1"/>
</g>
<mask id="mask3_830_9250" style="mask-type:alpha" maskUnits="userSpaceOnUse" x="0" y="0" width="34" height="46">
<path d="M21.2573 0.382568H3.75467C2.93644 0.38503 2.15243 0.711163 1.57385 1.28974C0.995267 1.86832 0.669134 2.65234 0.666672 3.47057V42.5919C0.668782 43.4104 0.99476 44.1947 1.57338 44.7736C2.15199 45.3525 2.93621 45.6788 3.75467 45.6812H30.5227C31.3411 45.6788 32.1254 45.3525 32.704 44.7736C33.2826 44.1947 33.6086 43.4104 33.6107 42.5919V12.7359L21.2573 0.382568Z" fill="white"/>
</mask>
<g mask="url(#mask3_830_9250)">
<path d="M21.2573 0.382568V9.6479C21.2573 10.4669 21.5827 11.2523 22.1618 11.8314C22.7409 12.4106 23.5263 12.7359 24.3453 12.7359H33.612L21.2573 0.382568Z" fill="#A1C2FA"/>
</g>
<mask id="mask4_830_9250" style="mask-type:alpha" maskUnits="userSpaceOnUse" x="0" y="0" width="34" height="46">
<path d="M21.2573 0.382568H3.75467C2.93644 0.38503 2.15243 0.711163 1.57385 1.28974C0.995267 1.86832 0.669134 2.65234 0.666672 3.47057V42.5919C0.668782 43.4104 0.99476 44.1947 1.57338 44.7736C2.15199 45.3525 2.93621 45.6788 3.75467 45.6812H30.5227C31.3411 45.6788 32.1254 45.3525 32.704 44.7736C33.2826 44.1947 33.6086 43.4104 33.6107 42.5919V12.7359L21.2573 0.382568Z" fill="white"/>
</mask>
<g mask="url(#mask4_830_9250)">
<path d="M3.75467 0.382568C2.93644 0.38503 2.15243 0.711163 1.57385 1.28974C0.995267 1.86832 0.669134 2.65234 0.666672 3.47057V3.7279C0.669134 2.90967 0.995267 2.12566 1.57385 1.54708C2.15243 0.968496 2.93644 0.642363 3.75467 0.639901H21.2573V0.382568H3.75467Z" fill="white" fill-opacity="0.2"/>
</g>
<mask id="mask5_830_9250" style="mask-type:alpha" maskUnits="userSpaceOnUse" x="0" y="0" width="34" height="46">
<path d="M21.2573 0.382568H3.75467C2.93644 0.38503 2.15243 0.711163 1.57385 1.28974C0.995267 1.86832 0.669134 2.65234 0.666672 3.47057V42.5919C0.668782 43.4104 0.99476 44.1947 1.57338 44.7736C2.15199 45.3525 2.93621 45.6788 3.75467 45.6812H30.5227C31.3411 45.6788 32.1254 45.3525 32.704 44.7736C33.2826 44.1947 33.6086 43.4104 33.6107 42.5919V12.7359L21.2573 0.382568Z" fill="white"/>
</mask>
<g mask="url(#mask5_830_9250)">
<path d="M30.5227 45.4239H3.75467C2.93644 45.4215 2.15243 45.0953 1.57385 44.5168C0.995267 43.9382 0.669134 43.1542 0.666672 42.3359V42.5933C0.669134 43.4115 0.995267 44.1955 1.57385 44.7741C2.15243 45.3527 2.93644 45.6788 3.75467 45.6813H30.5227C31.3409 45.6788 32.1249 45.3527 32.7035 44.7741C33.2821 44.1955 33.6082 43.4115 33.6107 42.5933V42.3359C33.6082 43.1542 33.2821 43.9382 32.7035 44.5168C32.1249 45.0953 31.3409 45.4215 30.5227 45.4239Z" fill="#1A237E" fill-opacity="0.2"/>
</g>
<mask id="mask6_830_9250" style="mask-type:alpha" maskUnits="userSpaceOnUse" x="0" y="0" width="34" height="46">
<path d="M21.2573 0.382568H3.75467C2.93644 0.38503 2.15243 0.711163 1.57385 1.28974C0.995267 1.86832 0.669134 2.65234 0.666672 3.47057V42.5919C0.668782 43.4104 0.99476 44.1947 1.57338 44.7736C2.15199 45.3525 2.93621 45.6788 3.75467 45.6812H30.5227C31.3411 45.6788 32.1254 45.3525 32.704 44.7736C33.2826 44.1947 33.6086 43.4104 33.6107 42.5919V12.7359L21.2573 0.382568Z" fill="white"/>
</mask>
<g mask="url(#mask6_830_9250)">
<path d="M24.3453 12.7373C23.9397 12.7373 23.538 12.6574 23.1633 12.5021C22.7886 12.3468 22.4481 12.1192 22.1613 11.8324C21.8746 11.5455 21.6471 11.2049 21.492 10.8301C21.3369 10.4553 21.2572 10.0536 21.2573 9.64795V9.90528C21.2572 10.3109 21.3369 10.7126 21.492 11.0874C21.6471 11.4622 21.8746 11.8028 22.1613 12.0897C22.4481 12.3766 22.7886 12.6042 23.1633 12.7594C23.538 12.9147 23.9397 12.9946 24.3453 12.9946H33.612V12.7373H24.3453Z" fill="#1A237E" fill-opacity="0.1"/>
<path d="M21.2573 0.382568H3.75467C2.93644 0.38503 2.15243 0.711163 1.57385 1.28974C0.995267 1.86832 0.669134 2.65234 0.666672 3.47057V42.5919C0.668782 43.4104 0.99476 44.1947 1.57338 44.7736C2.15199 45.3525 2.93621 45.6788 3.75467 45.6812H30.5227C31.3411 45.6788 32.1254 45.3525 32.704 44.7736C33.2826 44.1947 33.6086 43.4104 33.6107 42.5919V12.7359L21.2573 0.382568Z" fill="url(#paint1_radial_830_9250)"/>
</g>
<defs>
<linearGradient id="paint0_linear_830_9250" x1="27.8867" y1="12.8159" x2="27.8867" y2="23.2826" gradientUnits="userSpaceOnUse">
<stop stop-color="#1A237E" stop-opacity="0.2"/>
<stop offset="1" stop-color="#1A237E" stop-opacity="0.02"/>
</linearGradient>
<radialGradient id="paint1_radial_830_9250" cx="0" cy="0" r="1" gradientUnits="userSpaceOnUse" gradientTransform="translate(1.71067 1.27723) scale(53.1228 52.8163)">
<stop stop-color="white" stop-opacity="0.1"/>
<stop offset="1" stop-color="white" stop-opacity="0"/>
</radialGradient>
</defs>
</svg>
