<svg width="53" height="53" viewBox="0 0 53 53" fill="none" xmlns="http://www.w3.org/2000/svg">
<path d="M52.7254 26C52.7254 11.6406 40.9393 0 26.4004 0C11.8615 0 0.0754395 11.6406 0.0754395 26C0.0754395 40.3594 11.8615 52 26.4004 52C40.9393 52 52.7254 40.3594 52.7254 26Z" fill="#1977F3"/>
<path d="M36.5214 33.8093L37.7283 26.0333H30.1764V20.9867C30.1764 18.86 31.2294 16.784 34.6138 16.784H38.0496V10.1653C38.0496 10.1653 34.9311 9.64001 31.953 9.64001C25.7335 9.64001 21.666 13.36 21.666 20.1053V26.032H14.7513V33.808H21.666V52.6027C23.0737 52.82 24.4964 52.9284 25.9212 52.9267C27.3459 52.9264 28.7685 52.8181 30.1764 52.6027V33.808H36.5214V33.8093Z" fill="white"/>
</svg>
