<svg width="51" height="39" viewBox="0 0 51 39" fill="none" xmlns="http://www.w3.org/2000/svg">
<path d="M4.08279 38.6075H12.0716V19.0238L0.658234 10.3832V35.1507C0.658234 37.0647 2.19367 38.6075 4.08279 38.6075Z" fill="#4285F4"/>
<path d="M39.4597 38.6075H47.4498C49.3446 38.6075 50.8744 37.0588 50.8744 35.1507V10.3832L39.4611 19.0238" fill="#34A853"/>
<path d="M39.4597 4.04671V19.0224L50.873 10.3832V5.77512C50.873 1.50158 46.0407 -0.935436 42.6568 1.62723" fill="#FBBC04"/>
<path d="M12.0716 19.0237V4.04809L25.7656 14.4156L39.461 4.04663V19.0223L25.7656 29.3913" fill="#EA4335"/>
<path d="M0.658234 5.7736V10.3817L12.0716 19.0223V4.04665L8.87578 1.62717C5.4863 -0.936955 0.659636 1.50006 0.659636 5.7736H0.658234Z" fill="#C5221F"/>
</svg>
