<svg width="47" height="50" viewBox="0 0 47 50" fill="none" xmlns="http://www.w3.org/2000/svg">
<path fill-rule="evenodd" clip-rule="evenodd" d="M8.27333 8.98261C9.78666 10.2293 10.3547 10.1346 13.1987 9.94261L39.9987 8.31061C40.568 8.31061 40.096 7.73595 39.9053 7.63995L35.4547 4.37861C34.6013 3.70795 33.4653 2.93861 31.288 3.13195L5.33599 5.05061C4.38933 5.14395 4.19999 5.62395 4.57599 6.00928L8.27333 8.98261ZM9.88266 15.3133V43.8933C9.88266 45.4293 10.64 46.0039 12.344 45.9079L41.8 44.1813C43.5053 44.0866 43.6947 43.0293 43.6947 41.7813V13.3933C43.6947 12.1479 43.2213 11.4759 42.1773 11.5719L11.3973 13.3933C10.2613 13.4906 9.88266 14.0666 9.88266 15.3133ZM38.96 16.8466C39.1493 17.7106 38.96 18.5733 38.1067 18.6706L36.6867 18.9573V40.0573C35.4547 40.7293 34.3187 41.1119 33.372 41.1119C31.856 41.1119 31.476 40.6319 30.34 39.1946L21.0573 24.4239V38.7146L23.9947 39.3866C23.9947 39.3866 23.9947 41.1119 21.6253 41.1119L15.092 41.4973C14.9013 41.1133 15.092 40.1546 15.7547 39.9626L17.4587 39.4826V20.5893L15.092 20.3959C14.9013 19.5319 15.3747 18.2866 16.7013 18.1893L23.7107 17.7093L33.372 32.6733V19.4373L30.908 19.1506C30.72 18.0933 31.476 17.3266 32.424 17.2306L38.96 16.8466ZM3.15733 2.45995L30.1507 0.446614C33.4653 0.157281 34.3187 0.350613 36.4027 1.88528L45.02 8.02261C46.4413 9.07861 46.9147 9.36528 46.9147 10.5159V44.1826C46.9147 46.2919 46.156 47.5399 43.5053 47.7306L12.1573 49.6506C10.1667 49.7466 9.21866 49.4586 8.17733 48.1146L1.83066 39.7706C0.694662 38.2346 0.221329 37.0853 0.221329 35.7413V5.81595C0.221329 4.09061 0.979994 2.65195 3.15599 2.45995H3.15733Z" fill="black" fill-opacity="0.92"/>
</svg>
