<svg width="53" height="52" viewBox="0 0 53 52" fill="none" xmlns="http://www.w3.org/2000/svg">
<path d="M52.781 27.6429C52.7826 27.4327 52.7322 27.2256 52.6346 27.0416C52.537 26.8577 52.3955 26.7032 52.2239 26.593H52.2168L52.1958 26.5798L34.0386 15.3693C33.6363 15.0865 33.1623 14.9354 32.6772 14.9354C32.1921 14.9354 31.7181 15.0865 31.3158 15.3693L13.16 26.5813L13.1389 26.5959C12.966 26.7083 12.8239 26.8654 12.7263 27.052C12.6286 27.2385 12.5788 27.4482 12.5816 27.6607C12.5844 27.8732 12.6398 28.0814 12.7424 28.265C12.8449 28.4486 12.9912 28.6015 13.167 28.7089L31.3228 39.9224C31.7251 40.2052 32.1991 40.3562 32.6842 40.3562C33.1693 40.3562 33.6433 40.2052 34.0456 39.9224L52.2014 28.7089C52.3794 28.6005 52.5267 28.445 52.6285 28.258C52.7303 28.0711 52.7829 27.8594 52.781 27.6444V27.6429Z" fill="#0A2767"/>
<path d="M15.2765 20.156H27.1923V31.5496H15.2765V20.1575V20.156ZM50.3446 8.57351V3.36065C50.3585 2.73469 50.1336 2.12856 49.7194 1.67551C49.3051 1.22246 48.7354 0.95955 48.1354 0.94458H17.2161C15.967 0.97533 14.9775 2.05744 15.007 3.36065V8.57351L33.2849 13.6575L50.3446 8.57204V8.57351Z" fill="#0364B8"/>
<path d="M15.007 8.57202H27.1923V20.014H15.007V8.57202Z" fill="#0078D4"/>
<path d="M39.3775 8.57202H27.1923V20.014L39.3775 31.4559H50.3445V20.014L39.3775 8.57202Z" fill="#28A8EA"/>
<path d="M27.1923 20.0139H39.3775V31.4558H27.1923V20.0139Z" fill="#0078D4"/>
<path d="M27.1923 31.4559H39.3775V42.8979H27.1923V31.4559Z" fill="#0364B8"/>
<path d="M15.2765 31.5496H27.1923V41.9094H15.2765V31.5496Z" fill="#14447D"/>
<path d="M39.3775 31.4559H50.3446V42.8979H39.3775V31.4559Z" fill="#0078D4"/>
<path d="M52.2239 28.6372L52.2 28.6504L34.0442 39.3045C33.6743 39.5444 33.2513 39.6805 32.8161 39.6999L31.8239 39.0951C31.7399 39.0512 31.6583 39.0023 31.5796 38.9487L13.1797 27.9929H13.1712L12.5691 27.6415V49.2089C12.5739 49.8997 12.8414 50.5602 13.3127 51.0454C13.7841 51.5305 14.4207 51.8006 15.0828 51.7963H50.3067C50.3277 51.7963 50.346 51.7875 50.367 51.7875C50.6584 51.7678 50.9457 51.7052 51.2203 51.6016C51.3396 51.5489 51.4533 51.4874 51.5628 51.4156C51.6442 51.3673 51.7846 51.2619 51.7846 51.2619C52.4091 50.7787 52.7782 50.0187 52.7811 49.2089V27.64C52.781 27.8426 52.7294 28.0415 52.6315 28.2165C52.5336 28.3914 52.3929 28.5361 52.2239 28.6357V28.6372Z" fill="url(#paint0_linear_827_9284)"/>
<path opacity="0.5" d="M51.807 27.5565V28.8787L32.8217 42.5171L13.167 28.0016C13.167 27.9981 13.1657 27.9948 13.1633 27.9923C13.1609 27.9898 13.1577 27.9885 13.1544 27.9885L11.3509 26.858V25.9048L12.0947 25.8901L13.6667 26.8317L13.7031 26.8463L13.8365 26.9342C13.8365 26.9342 32.3095 37.931 32.3586 37.9559L33.0659 38.3893C33.1263 38.3629 33.1881 38.338 33.261 38.3117C33.2975 38.2868 51.5993 27.5448 51.5993 27.5448L51.807 27.5565Z" fill="#0A2767"/>
<path d="M52.2239 28.6372L52.2 28.6518L34.0442 39.306C33.6369 39.5749 33.1648 39.7176 32.6828 39.7176C32.2008 39.7176 31.7287 39.5749 31.3214 39.306L13.1656 28.6504L13.1432 28.6357C12.9709 28.5384 12.8269 28.3947 12.7259 28.2196C12.6249 28.0445 12.5708 27.8444 12.5691 27.64V49.2089C12.5736 49.8997 12.8407 50.5604 13.3117 51.0458C13.7828 51.5312 14.4193 51.8017 15.0814 51.7978H50.2688C50.9309 51.8017 51.5674 51.5312 52.0384 51.0458C52.5095 50.5604 52.7766 49.8997 52.7811 49.2089V27.64C52.7809 27.8426 52.7292 28.0415 52.6313 28.2164C52.5335 28.3913 52.3928 28.536 52.2239 28.6357V28.6372Z" fill="#1490DF"/>
<path opacity="0.1" d="M34.3081 39.1478L34.0372 39.306C33.6764 39.5463 33.263 39.6869 32.8358 39.7145L39.7425 48.2366L51.793 51.2677C52.1228 51.0071 52.3853 50.6644 52.5565 50.272L34.3081 39.1478Z" fill="black" fill-opacity="0.92"/>
<path opacity="0.05" d="M35.5389 38.4259L34.0372 39.3059C33.6764 39.5463 33.263 39.6869 32.8358 39.7145L36.0709 49.0244L51.7972 51.2633C52.4161 50.7772 52.781 50.0172 52.781 49.2089V48.9307L35.5403 38.4259H35.5389Z" fill="black" fill-opacity="0.92"/>
<path d="M15.1165 51.7978H50.266C50.8068 51.8004 51.3342 51.6217 51.7705 51.2882L31.8211 39.0981C31.7371 39.0541 31.6555 39.0052 31.5768 38.9516L13.1768 27.9958H13.1684L12.5677 27.6429V49.1357C12.5677 50.6044 13.7074 51.7963 15.1151 51.7978H15.1165Z" fill="#28A8EA"/>
<path opacity="0.1" d="M29.6288 13.4452V40.5637C29.6274 41.0282 29.4935 41.4817 29.244 41.8664C28.9945 42.2511 28.6408 42.5495 28.2281 42.7236C27.9656 42.8407 27.6835 42.9022 27.4 42.9022H12.5677V12.3865H15.0056V11.1155H27.3986C27.9896 11.1182 28.5557 11.3646 28.9732 11.8011C29.3907 12.2375 29.6259 12.8285 29.6274 13.4452H29.6288Z" fill="black" fill-opacity="0.92"/>
<path opacity="0.2" d="M28.4105 14.7162V41.8348C28.4138 42.1415 28.3514 42.4451 28.2281 42.7236C28.0625 43.1491 27.7795 43.5137 27.4148 43.7711C27.0502 44.0284 26.6205 44.1668 26.1804 44.1688H12.5691V12.3865H26.1804C26.534 12.3821 26.8821 12.4744 27.1909 12.653C27.9389 13.0454 28.4105 13.8435 28.4119 14.7176L28.4105 14.7162Z" fill="black" fill-opacity="0.92"/>
<path opacity="0.2" d="M28.4105 14.7162V39.2913C28.4076 39.9083 28.172 40.4992 27.7546 40.9363C27.3372 41.3734 26.7717 41.6215 26.1804 41.6269H12.5691V12.3851H26.1804C26.534 12.3821 26.8821 12.4744 27.1909 12.653C27.9389 13.0455 28.4105 13.8435 28.4105 14.7177V14.7162Z" fill="black" fill-opacity="0.92"/>
<path opacity="0.2" d="M27.1923 14.7162V39.2913C27.1915 39.9089 26.9566 40.5012 26.5388 40.9388C26.1209 41.3764 25.5541 41.6237 24.9621 41.6268H12.5691V12.385H24.9621C25.2553 12.3852 25.5455 12.4457 25.8163 12.5629C26.0871 12.6802 26.333 12.852 26.5402 13.0685C26.7473 13.285 26.9115 13.5419 27.0234 13.8246C27.1352 14.1073 27.1926 14.4103 27.1923 14.7162Z" fill="black" fill-opacity="0.92"/>
<path d="M2.61824 12.3865H24.9579C25.2512 12.3863 25.5416 12.4464 25.8126 12.5634C26.0836 12.6804 26.3299 12.852 26.5373 13.0684C26.7446 13.2848 26.9091 13.5417 27.0213 13.8244C27.1334 14.1071 27.1911 14.4102 27.1909 14.7162V38.0247C27.1912 38.3308 27.1337 38.634 27.0217 38.9169C26.9096 39.1998 26.7452 39.4568 26.5378 39.6734C26.3303 39.8899 26.084 40.0616 25.813 40.1787C25.5419 40.2958 25.2513 40.356 24.9579 40.3558H2.61824C2.32476 40.356 2.03413 40.2958 1.76296 40.1787C1.49178 40.0617 1.24539 39.89 1.03788 39.6735C0.830357 39.4569 0.665781 39.1999 0.553558 38.917C0.441335 38.6341 0.383666 38.3308 0.383851 38.0247V14.7162C0.383851 13.429 1.38455 12.3865 2.61824 12.3865Z" fill="url(#paint1_linear_827_9284)"/>
<path d="M7.36491 22.1606C7.91541 20.937 8.80399 19.913 9.91649 19.2203C11.1486 18.4837 12.5517 18.1163 13.9712 18.1587C15.2865 18.129 16.5842 18.477 17.7228 19.1646C18.7932 19.8309 19.6552 20.8071 20.2042 21.9746C20.8035 23.2603 21.1011 24.6762 21.0744 26.1068C21.1035 27.6009 20.7968 29.0812 20.1789 30.4294C19.6165 31.6382 18.727 32.6486 17.6204 33.336C16.4378 34.0445 15.0918 34.4015 13.7284 34.3683C12.3852 34.4023 11.0589 34.0508 9.89404 33.3521C8.81396 32.6849 7.94082 31.7073 7.37895 30.5363C6.77732 29.2689 6.47556 27.8695 6.49895 26.4553C6.47378 24.974 6.7698 23.5058 7.36491 22.1606ZM10.0849 29.0632C10.3782 29.8378 10.8765 30.5085 11.5207 30.999C12.1768 31.4768 12.9622 31.7231 13.7621 31.7019C14.6142 31.7373 15.4542 31.4823 16.1551 30.9756C16.7923 30.4865 17.2765 29.8144 17.5502 29.0398C17.8547 28.1759 18.0063 27.2621 17.9937 26.3411C18.0034 25.4122 17.8619 24.4883 17.5754 23.6088C17.322 22.8144 16.853 22.1139 16.2253 21.5924C15.5421 21.0614 14.7045 20.792 13.8533 20.8295C13.0357 20.8072 12.2323 21.0558 11.5586 21.5397C10.9034 22.0323 10.3961 22.7093 10.0961 23.4916C9.4307 25.2843 9.4272 27.2709 10.0863 29.0661L10.0849 29.0632Z" fill="white"/>
<path d="M39.3775 8.57202H50.3446V20.014H39.3775V8.57202Z" fill="#50D9FF"/>
<defs>
<linearGradient id="paint0_linear_827_9284" x1="32.6758" y1="27.6429" x2="32.6758" y2="51.7978" gradientUnits="userSpaceOnUse">
<stop stop-color="#35B8F1"/>
<stop offset="1" stop-color="#28A8EA"/>
</linearGradient>
<linearGradient id="paint1_linear_827_9284" x1="5.04069" y1="10.5649" x2="23.6712" y2="41.4917" gradientUnits="userSpaceOnUse">
<stop stop-color="#1784D9"/>
<stop offset="0.5" stop-color="#107AD5"/>
<stop offset="1" stop-color="#0A63C9"/>
</linearGradient>
</defs>
</svg>
