<svg width="59" height="41" viewBox="0 0 59 41" fill="none" xmlns="http://www.w3.org/2000/svg">
<path d="M37.216 17.3134C36.7667 17.3134 36.4507 17.4627 36.2413 17.7734C36.032 18.0854 35.924 18.5307 35.924 19.0974C35.924 19.664 36.0307 20.1134 36.2413 20.4294C36.4507 20.7414 36.7693 20.8934 37.2147 20.8934C37.6613 20.8934 37.9827 20.74 38.1947 20.4267C38.408 20.1094 38.5147 19.6627 38.5147 19.096C38.5147 18.5294 38.408 18.0827 38.1947 17.7734C37.9827 17.464 37.664 17.3134 37.216 17.3134Z" fill="#00A1E0"/>
<path d="M46.3467 5.74937C44.5883 5.74859 42.8486 6.10987 41.236 6.81071C40.3203 5.21982 39.0011 3.89871 37.4115 2.98078C35.8219 2.06285 34.0183 1.58059 32.1827 1.58271C30.7988 1.5805 29.4283 1.85409 28.1513 2.3875C26.8743 2.92091 25.7165 3.70344 24.7453 4.68937V4.70004C22.6787 2.04404 19.38 0.333374 15.692 0.333374C9.39866 0.333374 4.28933 5.28804 4.28933 11.4187C4.28933 12.9347 4.60533 14.4347 5.22667 15.8267C2.304 17.5067 0.333332 20.6134 0.333332 24.1827C0.333332 29.4947 4.70933 33.8187 10.12 33.8187C10.7973 33.8187 11.472 33.752 12.1333 33.6147C13.6213 37.5414 17.48 40.3334 22.0293 40.3334C26.5773 40.3334 30.1227 37.7507 31.7293 34.0774C32.9933 34.6774 34.3787 34.9867 35.7827 34.984C37.4135 34.9883 39.0168 34.5639 40.4319 33.7533C41.8469 32.9426 43.0241 31.7743 43.8453 30.3654C44.669 30.5255 45.5062 30.6063 46.3453 30.6067C53.3307 30.6067 59 25.044 59 18.1787C59 11.312 53.3307 5.74937 46.3467 5.74937ZM12.9427 20.164C12.9427 21.168 12.196 21.7907 10.992 21.7907C10.4013 21.7907 9.83733 21.7014 9.23733 21.392C9.12533 21.3294 9.01333 21.272 8.904 21.1947C8.892 21.1787 8.84133 21.16 8.87733 21.0654L9.11467 20.42C9.15067 20.3107 9.23733 20.3467 9.272 20.368C9.336 20.4054 9.38667 20.4414 9.47066 20.4894C10.1707 20.92 10.8173 20.924 11.02 20.924C11.5413 20.924 11.868 20.6534 11.868 20.2907V20.272C11.868 19.876 11.368 19.7254 10.7893 19.5534L10.6627 19.516C9.86933 19.2947 9.02 18.976 9.02 17.9974V17.9774C9.02 17.0494 9.78933 16.4 10.8907 16.4H11.0107C11.6154 16.3977 12.2102 16.5535 12.736 16.852C12.776 16.8747 12.8187 16.9227 12.7947 16.984L12.5493 17.6267C12.5053 17.736 12.3893 17.6614 12.3893 17.6614C11.9149 17.4219 11.3927 17.2921 10.8613 17.2814C10.3947 17.2814 10.0933 17.5227 10.0933 17.8507V17.8694C10.0933 18.252 10.608 18.416 11.2053 18.604L11.3093 18.636C12.0987 18.8774 12.9427 19.2147 12.9427 20.1427V20.164ZM17.8773 21.456C17.8773 21.456 17.7533 21.4894 17.6373 21.5147C17.3533 21.5747 17.0693 21.628 16.7827 21.6747C16.4415 21.7308 16.0964 21.7593 15.7507 21.76C15.4013 21.76 15.116 21.7307 14.8493 21.6694C14.6009 21.6196 14.3651 21.5203 14.156 21.3774C13.9676 21.2439 13.8155 21.0657 13.7133 20.8587C13.6038 20.6225 13.5504 20.3643 13.5573 20.104C13.5573 19.8107 13.6173 19.5574 13.7387 19.3387C13.8573 19.1227 14.028 18.936 14.232 18.7934C14.4477 18.6457 14.6878 18.5373 14.9413 18.4734C15.204 18.4027 15.488 18.3667 15.7773 18.3667C15.9907 18.3667 16.1707 18.372 16.308 18.3827L16.312 18.3907C16.312 18.3907 16.5827 18.4134 16.872 18.456V18.3147C16.872 17.8747 16.7787 17.664 16.592 17.5254C16.4027 17.3854 16.1187 17.312 15.752 17.312C15.752 17.312 14.9253 17.3014 14.272 17.6467C14.2413 17.664 14.2147 17.6734 14.2147 17.6734C14.2147 17.6734 14.1333 17.7014 14.1027 17.62L13.8627 16.9894C13.8253 16.9 13.892 16.8574 13.892 16.8574C14.1987 16.624 14.9387 16.484 14.9387 16.484C15.1853 16.436 15.5973 16.4027 15.8507 16.4027C16.5307 16.4027 17.0547 16.556 17.412 16.86C17.772 17.164 17.9533 17.6574 17.9533 18.3214V21.344C17.9533 21.344 17.9613 21.432 17.8773 21.4534V21.456ZM20.1573 21.5627C20.1573 21.616 20.1173 21.6627 20.0613 21.6627H19.16C19.1027 21.6627 19.064 21.6174 19.064 21.5627V14.4934C19.064 14.44 19.104 14.3934 19.16 14.3934H20.0613C20.1173 14.3934 20.1587 14.4374 20.1587 14.4934V21.5627H20.1573ZM25.7933 19.284C25.7853 19.3707 25.6947 19.3707 25.6947 19.3707H22.288C22.308 19.872 22.4333 20.228 22.6827 20.4707C22.928 20.708 23.3213 20.8614 23.8467 20.8614C24.656 20.864 25 20.704 25.244 20.616C25.244 20.616 25.3387 20.5827 25.3733 20.6747L25.596 21.2814C25.64 21.384 25.604 21.42 25.5667 21.4387C25.356 21.5547 24.8387 21.768 23.856 21.7707C23.376 21.7707 22.9627 21.7054 22.62 21.5747C22.2962 21.4585 22.0034 21.2697 21.764 21.0227C21.5392 20.7828 21.3714 20.4952 21.2733 20.1814C21.1665 19.8388 21.1139 19.4816 21.1173 19.1227C21.1173 18.7414 21.168 18.392 21.2667 18.0667C21.3546 17.7493 21.5117 17.4553 21.7268 17.2058C21.9419 16.9564 22.2096 16.7577 22.5107 16.624C22.8227 16.4814 23.2093 16.412 23.6333 16.412C23.9667 16.412 24.3 16.4787 24.608 16.6054C24.8213 16.6934 25.0347 16.856 25.2547 17.0854C25.3933 17.2294 25.604 17.5467 25.6907 17.8587H25.692C25.9093 18.6054 25.7987 19.2494 25.7933 19.2854V19.284ZM28.6027 21.7894C28.012 21.7894 27.4467 21.6987 26.848 21.3894C26.736 21.328 26.624 21.2707 26.5147 21.1934C26.5013 21.176 26.4507 21.1574 26.488 21.0627H26.4853L26.7227 20.4187C26.7573 20.3134 26.8587 20.352 26.88 20.3654C26.9453 20.4054 26.9947 20.4387 27.0787 20.488C27.7773 20.9187 28.4253 20.9227 28.628 20.9227C29.1507 20.9227 29.476 20.6507 29.476 20.288V20.2694C29.476 19.8747 28.9773 19.7227 28.3973 19.5507L28.2707 19.5134C27.4773 19.2934 26.628 18.9734 26.628 17.996V17.9774C26.628 17.0494 27.3973 16.4 28.4987 16.4H28.6187C29.2234 16.3977 29.8182 16.5535 30.344 16.852C30.3853 16.8747 30.4267 16.9227 30.4027 16.984C30.3827 17.0427 30.1827 17.568 30.1587 17.6267C30.116 17.736 29.9987 17.6614 29.9987 17.6614C29.5241 17.4222 29.002 17.2924 28.4707 17.2814C28.0053 17.2814 27.704 17.5227 27.704 17.8507V17.8694C27.704 18.252 28.2187 18.416 28.816 18.604L28.92 18.636C29.7107 18.8774 30.5533 19.2147 30.5533 20.1427V20.1627C30.5533 21.1654 29.8067 21.7894 28.6027 21.7894ZM34.5547 17.3107C34.5347 17.412 34.44 17.408 34.44 17.408H33.32L32.5533 21.6294C32.4891 22.0091 32.3891 22.3818 32.2547 22.7427C32.158 23.0169 32.0075 23.2689 31.812 23.484C31.6417 23.676 31.4264 23.8226 31.1853 23.9107C30.9161 23.9989 30.6339 24.0413 30.3507 24.036C30.1836 24.0405 30.0166 24.0249 29.8533 23.9894C29.7482 23.9658 29.6445 23.9365 29.5427 23.9014C29.4987 23.8867 29.4667 23.8347 29.4907 23.768C29.5147 23.7014 29.7147 23.1667 29.744 23.0947C29.7773 23.0094 29.8653 23.0427 29.8653 23.0427C29.9243 23.069 29.986 23.0887 30.0493 23.1014C30.1307 23.1187 30.2387 23.1307 30.3227 23.1307C30.4581 23.1337 30.5932 23.1148 30.7227 23.0747C30.8488 23.0321 30.9581 22.9503 31.0347 22.8414C31.1253 22.7294 31.1947 22.5747 31.2707 22.3707C31.3467 22.1627 31.416 21.888 31.476 21.5547L32.2387 17.4094H31.4867C31.396 17.4094 31.368 17.3694 31.3773 17.3027L31.504 16.6147C31.524 16.5134 31.6187 16.5174 31.6187 16.5174H32.3907L32.4307 16.2934C32.5453 15.6267 32.7773 15.124 33.1147 14.792C33.4547 14.4587 33.9413 14.288 34.5547 14.288C34.8245 14.2873 35.093 14.3255 35.352 14.4014C35.376 14.4094 35.44 14.4414 35.4147 14.5174L35.1533 15.2107C35.132 15.264 35.1173 15.296 35.0067 15.2627C34.8595 15.2168 34.7062 15.1934 34.552 15.1934C34.4288 15.1924 34.3062 15.2095 34.188 15.244C34.0811 15.2783 33.9839 15.3372 33.904 15.416C33.7994 15.5146 33.7175 15.6347 33.664 15.768C33.5387 16.1187 33.4907 16.4907 33.4853 16.5147H34.572C34.6627 16.5147 34.692 16.5547 34.6813 16.6227L34.5547 17.3107ZM39.5173 20.1507C39.4173 20.4747 39.264 20.76 39.06 21C38.8547 21.24 38.5933 21.4307 38.288 21.5667C37.9813 21.7027 37.62 21.772 37.2133 21.772C36.8434 21.7796 36.476 21.7096 36.1347 21.5667C35.8369 21.4375 35.5719 21.2431 35.3594 20.9978C35.1468 20.7525 34.9921 20.4625 34.9067 20.1494C34.8048 19.8081 34.7545 19.4535 34.7573 19.0974C34.7573 18.7214 34.8067 18.3694 34.9053 18.0467C35.0053 17.7214 35.1587 17.4347 35.3627 17.196C35.568 16.956 35.8293 16.764 36.136 16.6254C36.4427 16.4867 36.8027 16.4147 37.212 16.4147C37.6227 16.4147 37.9853 16.484 38.2907 16.624C38.5987 16.764 38.8573 16.9574 39.0627 17.196C39.2667 17.436 39.42 17.7214 39.52 18.0467C39.616 18.3694 39.6667 18.724 39.6667 19.0974C39.6667 19.4707 39.616 19.8267 39.52 20.1507H39.5173ZM43.684 16.6747V16.6614C43.6533 16.7507 43.488 17.204 43.4307 17.3547C43.408 17.412 43.372 17.452 43.3053 17.4454C43.3053 17.4454 43.1093 17.4014 42.932 17.4014C42.776 17.4014 42.624 17.4227 42.4747 17.464C42.3174 17.5125 42.1736 17.597 42.0547 17.7107C41.9192 17.8477 41.8174 18.0143 41.7573 18.1974C41.6813 18.4054 41.6453 18.7347 41.6453 19.0667V21.544C41.6446 21.571 41.6333 21.5967 41.6139 21.6154C41.5944 21.6341 41.5683 21.6444 41.5413 21.644H40.648C40.6212 21.6441 40.5955 21.6336 40.5763 21.6149C40.5572 21.5962 40.546 21.5708 40.5453 21.544V16.6107C40.5453 16.556 40.5853 16.5094 40.6427 16.5094H41.5133C41.572 16.5094 41.6107 16.5534 41.6107 16.6094V17.0134C41.74 16.84 41.972 16.692 42.184 16.6C42.3973 16.5067 42.6347 16.436 43.0613 16.4627C43.2827 16.476 43.572 16.536 43.6307 16.5574H43.632C43.6432 16.5619 43.6534 16.5686 43.6619 16.5771C43.6705 16.5857 43.6772 16.5959 43.6817 16.6071C43.6862 16.6183 43.6883 16.6303 43.688 16.6424C43.6878 16.6545 43.685 16.6664 43.68 16.6774L43.684 16.6747ZM47.98 21.512C47.6013 21.6587 47.0733 21.76 46.5573 21.76C45.6867 21.76 45.0187 21.516 44.5747 21.0334C44.1307 20.5534 43.9067 19.896 43.9067 19.0854C43.9067 18.7094 43.9627 18.3547 44.0707 18.032C44.18 17.7054 44.344 17.42 44.56 17.1814C44.7747 16.9414 45.0467 16.748 45.368 16.6107C45.688 16.472 46.064 16.4 46.4867 16.4C46.7707 16.4 47.024 16.4174 47.2413 16.448C47.4733 16.4827 47.7827 16.564 47.912 16.6147C47.9347 16.6227 48 16.6547 47.9747 16.7294L47.7267 17.3974C47.6893 17.4987 47.6093 17.464 47.6093 17.464C47.2649 17.3599 46.9064 17.3099 46.5467 17.316C46.0507 17.316 45.676 17.4787 45.432 17.7947C45.1867 18.1134 45.0493 18.528 45.0467 19.0827C45.044 19.692 45.2 20.1414 45.4773 20.42C45.7533 20.7 46.1413 20.84 46.6267 20.84C46.8227 20.84 47.008 20.8267 47.176 20.8027C47.3361 20.7755 47.4929 20.7317 47.644 20.672C47.644 20.672 47.7387 20.636 47.7733 20.7307L48.0213 21.3947C48.0533 21.476 47.9813 21.5107 47.9813 21.5107V21.512H47.98ZM53.02 19.2827C53.012 19.368 52.9213 19.368 52.9213 19.368H49.516C49.5347 19.8707 49.66 20.2254 49.9107 20.4694C50.156 20.7054 50.5467 20.8587 51.0747 20.8587C51.8827 20.8614 52.228 20.7014 52.4707 20.6134C52.4707 20.6134 52.5653 20.58 52.5987 20.672L52.82 21.2787C52.8653 21.3827 52.8293 21.4174 52.7933 21.436C52.58 21.552 52.064 21.7667 51.08 21.7694C50.604 21.7694 50.188 21.7027 49.8453 21.5734C49.5216 21.4571 49.2288 21.2683 48.9893 21.0214C48.7628 20.7818 48.5941 20.4935 48.496 20.1787C48.3913 19.8361 48.3396 19.4796 48.3427 19.1214C48.3427 18.7387 48.392 18.3907 48.492 18.0654C48.5799 17.7479 48.7371 17.4539 48.9521 17.2045C49.1672 16.955 49.4349 16.7563 49.736 16.6227C50.0909 16.4729 50.4736 16.4002 50.8587 16.4094C51.192 16.4094 51.5253 16.476 51.832 16.604C52.0453 16.692 52.2587 16.8534 52.48 17.0827C52.6173 17.2267 52.8293 17.544 52.9147 17.856H52.92C53.1373 18.6027 53.0253 19.2467 53.0213 19.2827H53.02Z" fill="#00A1E0"/>
<path d="M16.8707 19.2826C16.5652 19.2364 16.2569 19.2111 15.948 19.2066C15.2533 19.1986 14.9587 19.4466 14.9613 19.4466C14.756 19.5866 14.656 19.7973 14.656 20.0866C14.656 20.2706 14.6907 20.416 14.7573 20.5173C14.8027 20.584 14.82 20.6093 14.9533 20.7146C14.9533 20.7146 15.2573 20.9493 15.9493 20.9093C16.4373 20.88 16.868 20.7893 16.868 20.7893V19.2853L16.8707 19.2826ZM23.556 17.288C23.1093 17.288 22.792 17.4586 22.5827 17.768C22.4337 18.0046 22.3394 18.2716 22.3067 18.5493H24.7333C24.7093 18.2453 24.648 17.9746 24.508 17.7693C24.2973 17.4586 24.0013 17.2893 23.556 17.2893V17.288ZM50.7827 17.288C50.336 17.288 50.0187 17.4586 49.8093 17.768C49.6595 18.0042 49.5652 18.2714 49.5333 18.5493H51.96C51.936 18.2453 51.8747 17.9746 51.7347 17.7693C51.524 17.4586 51.228 17.2893 50.7813 17.2893L50.7827 17.288Z" fill="#00A1E0"/>
<path d="M25.6933 17.8574C25.6054 17.5705 25.4562 17.3062 25.256 17.0827C25.0755 16.8802 24.8554 16.7168 24.6093 16.6027C24.3007 16.4754 23.9699 16.4102 23.636 16.4107C23.2107 16.4107 22.8253 16.4801 22.512 16.6227C22.2109 16.7563 21.9432 16.9549 21.728 17.2044C21.5129 17.4539 21.3558 17.7479 21.268 18.0654C21.1669 18.4082 21.1171 18.764 21.12 19.1214C21.12 19.4947 21.172 19.8574 21.2747 20.1787C21.3787 20.5027 21.544 20.7854 21.7667 21.0214C21.9907 21.2587 22.2773 21.4427 22.6227 21.5734C22.9653 21.7014 23.3787 21.7681 23.8573 21.7681C24.8413 21.7641 25.3573 21.5521 25.5693 21.4361C25.6053 21.4161 25.6427 21.3801 25.5973 21.2787L25.3747 20.6721C25.3413 20.5827 25.2453 20.6134 25.2453 20.6134C25.0027 20.7014 24.6573 20.8614 23.8493 20.8587C23.3227 20.8587 22.9307 20.7067 22.6853 20.4694C22.4347 20.2254 22.3093 19.8694 22.2907 19.3667H25.696C25.696 19.3667 25.7867 19.3667 25.796 19.2827C25.8 19.2467 25.912 18.6027 25.6947 17.8561H25.692L25.6933 17.8574ZM22.3067 18.5481C22.3389 18.27 22.4337 18.0029 22.584 17.7667C22.7933 17.4561 23.1093 17.2867 23.556 17.2867C24.0013 17.2867 24.2973 17.4561 24.508 17.7667C24.6493 17.9707 24.708 18.2441 24.7333 18.5481H22.3067ZM39.52 18.0467C39.4282 17.7345 39.2724 17.4448 39.0627 17.1961C38.8509 16.9508 38.5872 16.7559 38.2907 16.6254C37.9509 16.4784 37.5834 16.4065 37.2133 16.4147C36.804 16.4147 36.444 16.4867 36.136 16.6254C35.8388 16.7568 35.5745 16.9524 35.3619 17.1982C35.1494 17.4439 34.9939 17.7337 34.9067 18.0467C34.805 18.3876 34.7546 18.7417 34.7573 19.0974C34.7573 19.4734 34.808 19.8267 34.9067 20.1507C35.0053 20.4747 35.16 20.7601 35.364 21.0001C35.568 21.2401 35.8293 21.4307 36.1347 21.5667C36.4761 21.7092 36.8434 21.7792 37.2133 21.7721C37.6213 21.7721 37.9827 21.7027 38.2893 21.5667C38.596 21.4307 38.856 21.2387 39.06 21.0001C39.2698 20.7513 39.4255 20.4616 39.5173 20.1494C39.6174 19.8078 39.6668 19.4533 39.664 19.0974C39.664 18.7214 39.6147 18.3694 39.5173 18.0467H39.52ZM38.5147 19.0974C38.5147 19.6627 38.408 20.1107 38.1947 20.4267C37.9827 20.7401 37.6613 20.8934 37.2147 20.8934C36.7693 20.8934 36.4507 20.7414 36.2413 20.4294C36.0293 20.1147 35.924 19.6654 35.924 19.0974C35.924 18.5307 36.0307 18.0854 36.2413 17.7734C36.4507 17.4627 36.7667 17.3134 37.2147 17.3134C37.664 17.3134 37.9827 17.4641 38.1947 17.7734C38.408 18.0854 38.5147 18.5307 38.5147 19.0961V19.0974ZM43.6387 16.5574H43.636C43.4503 16.5072 43.26 16.4759 43.068 16.4641C42.6413 16.4374 42.404 16.5067 42.1893 16.6001C41.9787 16.6921 41.7453 16.8401 41.616 17.0134V16.6094C41.616 16.5561 41.576 16.5094 41.5173 16.5094H40.6467C40.6337 16.5094 40.6208 16.512 40.6088 16.517C40.5968 16.5221 40.586 16.5295 40.5769 16.5388C40.5678 16.5482 40.5607 16.5592 40.556 16.5713C40.5512 16.5834 40.549 16.5964 40.5493 16.6094V21.5427C40.5493 21.5987 40.5947 21.6441 40.6533 21.6441H41.5467C41.5734 21.6441 41.5992 21.6336 41.6183 21.6149C41.6375 21.5962 41.6486 21.5708 41.6493 21.5441V19.0667C41.6493 18.7347 41.6853 18.4054 41.7613 18.1974C41.8213 18.0143 41.9231 17.8476 42.0587 17.7107C42.1775 17.5969 42.3214 17.5124 42.4787 17.4641C42.628 17.4227 42.7813 17.4014 42.936 17.4014C43.1133 17.4014 43.3093 17.4454 43.3093 17.4454C43.3733 17.4521 43.4107 17.4147 43.4333 17.3561C43.492 17.2041 43.6587 16.7507 43.6907 16.6601V16.6747C43.6988 16.6525 43.6983 16.6281 43.6891 16.6063C43.6799 16.5846 43.6629 16.5671 43.6413 16.5574H43.6387ZM47.776 20.7334C47.744 20.6401 47.6467 20.6747 47.6467 20.6747C47.5 20.7281 47.3453 20.7801 47.18 20.8054C46.9976 20.8314 46.8136 20.8439 46.6293 20.8427C46.144 20.8427 45.756 20.7014 45.48 20.4227C45.2027 20.1427 45.0467 19.6934 45.0493 19.0854C45.0493 18.5307 45.1893 18.1161 45.436 17.7961C45.6787 17.4814 46.0533 17.3174 46.5493 17.3174C46.9627 17.3174 47.28 17.3641 47.612 17.4667C47.612 17.4667 47.6893 17.5001 47.7293 17.4001L47.9773 16.7321C48.0027 16.6587 47.9373 16.6254 47.9147 16.6161C47.6962 16.5419 47.4719 16.4866 47.244 16.4507C46.9939 16.4169 46.7417 16.4008 46.4893 16.4027C46.1056 16.3954 45.7245 16.4666 45.3693 16.6121C45.0493 16.7507 44.7773 16.9441 44.5627 17.1827C44.3467 17.4227 44.1827 17.7081 44.0733 18.0334C43.9614 18.3732 43.906 18.729 43.9093 19.0867C43.9093 19.8974 44.1333 20.5547 44.576 21.0361C45.0213 21.5187 45.6893 21.7614 46.56 21.7614C47.076 21.7614 47.604 21.6614 47.9827 21.5147C47.9827 21.5147 48.056 21.4801 48.024 21.3987L47.776 20.7361V20.7334ZM52.9187 17.8574C52.8312 17.5706 52.6825 17.3063 52.4827 17.0827C52.3022 16.8802 52.0821 16.7168 51.836 16.6027C51.5273 16.4754 51.1966 16.4102 50.8627 16.4107C50.4373 16.4107 50.052 16.4801 49.7387 16.6227C49.4376 16.7563 49.1698 16.9549 48.9547 17.2044C48.7396 17.4539 48.5825 17.7479 48.4947 18.0654C48.3937 18.4082 48.3438 18.764 48.3467 19.1214C48.3467 19.4947 48.3987 19.8574 48.5 20.1787C48.6027 20.5027 48.7693 20.7854 48.9933 21.0214C49.2173 21.2587 49.504 21.4427 49.8493 21.5734C50.192 21.7014 50.608 21.7681 51.084 21.7681C52.0667 21.7641 52.584 21.5521 52.796 21.4361C52.832 21.4161 52.8693 21.3801 52.8227 21.2787L52.6013 20.6721C52.5667 20.5827 52.4747 20.6134 52.4747 20.6134C52.2307 20.7014 51.8867 20.8614 51.0773 20.8587C50.5493 20.8587 50.16 20.7067 49.9133 20.4694C49.664 20.2254 49.5387 19.8694 49.5187 19.3667H52.9253C52.9253 19.3667 53.016 19.3667 53.024 19.2827C53.0293 19.2467 53.1413 18.6027 52.9227 17.8561H52.9187V17.8574ZM49.5347 18.5481C49.5665 18.2701 49.6609 18.003 49.8107 17.7667C50.0187 17.4561 50.336 17.2867 50.7827 17.2867C51.228 17.2867 51.524 17.4561 51.7347 17.7667C51.8747 17.9707 51.9347 18.2441 51.9587 18.5481H49.5347ZM30.556 20.1627V20.1441C30.556 19.2147 29.712 18.8774 28.9213 18.6361L28.8173 18.6041C28.2213 18.4161 27.7053 18.2521 27.7053 17.8707V17.8507C27.7053 17.5227 28.008 17.2814 28.4733 17.2814C28.9907 17.2814 29.6053 17.4494 30.0013 17.6614C30.0013 17.6614 30.1173 17.7361 30.1613 17.6267C30.1853 17.5681 30.3853 17.0427 30.4053 16.9841C30.428 16.9227 30.388 16.8774 30.3467 16.8507C29.8205 16.553 29.2258 16.3977 28.6213 16.4001H28.5013C27.4 16.4001 26.6293 17.0494 26.6293 17.9774V17.9961C26.6293 18.9734 27.4787 19.2934 28.272 19.5134L28.4 19.5507C28.98 19.7241 29.4773 19.8747 29.4773 20.2694V20.2881C29.4773 20.6507 29.152 20.9227 28.6307 20.9227C28.428 20.9227 27.7787 20.9187 27.08 20.4881C26.996 20.4387 26.9467 20.4054 26.8827 20.3654C26.86 20.3521 26.76 20.3134 26.7253 20.4187L26.488 21.0614H26.4893C26.4533 21.1547 26.5027 21.1761 26.516 21.1934C26.6253 21.2707 26.7373 21.3267 26.8493 21.3907C27.4493 21.6987 28.0133 21.7894 28.604 21.7894C29.808 21.7894 30.556 21.1654 30.556 20.1627ZM11.3093 18.6361L11.2067 18.6041C10.6093 18.4161 10.0933 18.2521 10.0933 17.8707V17.8507C10.0933 17.5227 10.396 17.2814 10.8613 17.2814C11.3787 17.2814 11.9947 17.4494 12.3893 17.6614C12.3893 17.6614 12.5053 17.7361 12.5493 17.6267C12.5733 17.5681 12.7733 17.0427 12.7947 16.9841C12.8187 16.9227 12.7773 16.8774 12.736 16.8507C12.2103 16.5532 11.6161 16.3979 11.012 16.4001H10.892C9.78933 16.4001 9.02 17.0494 9.02 17.9774V17.9974C9.02 18.9761 9.86933 19.2947 10.6627 19.5161L10.7893 19.5534C11.368 19.7267 11.868 19.8761 11.868 20.2707V20.2907C11.868 20.6534 11.5427 20.9241 11.02 20.9241C10.4729 20.9279 9.93591 20.7772 9.47067 20.4894C9.38667 20.4414 9.33733 20.4081 9.272 20.3681C9.23733 20.3467 9.152 20.3107 9.11467 20.4214L8.87733 21.0627C8.84133 21.1574 8.89067 21.1787 8.904 21.1961C9.01333 21.2734 9.12533 21.3294 9.23733 21.3921C9.83733 21.7014 10.4013 21.7921 10.992 21.7921C12.196 21.7921 12.944 21.1681 12.944 20.1654V20.1454C12.944 19.2174 12.0987 18.8787 11.3093 18.6387V18.6361ZM17.4133 16.8614C17.056 16.5574 16.5333 16.4041 15.8533 16.4041C15.6 16.4041 15.1867 16.4374 14.9413 16.4867C14.9413 16.4867 14.2 16.6267 13.8947 16.8601C13.8947 16.8601 13.828 16.9001 13.864 16.9934L14.1053 17.6214C14.136 17.7041 14.2173 17.6761 14.2173 17.6761C14.2173 17.6761 14.244 17.6654 14.2733 17.6494C14.9267 17.3027 15.7533 17.3134 15.7533 17.3134C16.1213 17.3134 16.4067 17.3867 16.5947 17.5267C16.7813 17.6667 16.8747 17.8761 16.8747 18.3174V18.4574C16.584 18.4161 16.3147 18.3921 16.3147 18.3921L16.3107 18.3841C16.134 18.3728 15.957 18.368 15.78 18.3694C15.4893 18.3694 15.2067 18.4054 14.944 18.4747C14.6905 18.5388 14.4504 18.6471 14.2347 18.7947C14.0304 18.9366 13.8616 19.1237 13.7413 19.3414C13.6167 19.5764 13.5543 19.8394 13.56 20.1054C13.56 20.3961 13.612 20.6534 13.7147 20.8614C13.816 21.0667 13.9693 21.2454 14.1587 21.3801C14.3493 21.5134 14.5813 21.6134 14.852 21.6721C15.1187 21.7307 15.42 21.7614 15.752 21.7614C16.1013 21.7614 16.4493 21.7321 16.7853 21.6774C17.072 21.6294 17.356 21.5747 17.6413 21.5174C17.7547 21.4907 17.88 21.4574 17.88 21.4574C17.964 21.4361 17.9573 21.3481 17.9573 21.3481V18.3254C17.9573 17.6614 17.7747 17.1681 17.4147 16.8641V16.8614H17.4133ZM15.9547 20.9081C15.2627 20.9481 14.9573 20.7147 14.9587 20.7147C14.8799 20.6638 14.8131 20.5965 14.7627 20.5174C14.688 20.3866 14.6528 20.237 14.6613 20.0867C14.6613 19.7974 14.7613 19.5867 14.9653 19.4467C14.9627 19.4467 15.2587 19.1987 15.952 19.2067C16.2613 19.2134 16.5693 19.2387 16.876 19.2827V20.7881C16.876 20.7881 16.444 20.8787 15.956 20.9081H15.9547Z" fill="#FFFFFE"/>
<path d="M34.5733 16.516H33.4867C33.4933 16.492 33.54 16.1186 33.6653 15.7693C33.7174 15.6348 33.7995 15.5139 33.9053 15.416C33.9845 15.336 34.082 15.2765 34.1893 15.2426C34.3078 15.2073 34.4311 15.1907 34.5547 15.1933C34.7082 15.1957 34.8607 15.2191 35.008 15.2626C35.1187 15.296 35.1333 15.2626 35.1547 15.212L35.416 14.5173C35.4427 14.4413 35.3773 14.4106 35.3533 14.4013C35.0943 14.3259 34.8258 14.2877 34.556 14.288C33.9427 14.288 33.4573 14.4586 33.116 14.792C32.7773 15.124 32.5467 15.6293 32.4333 16.2933L32.392 16.5173H31.62C31.62 16.5173 31.5253 16.5133 31.5053 16.6146L31.3787 17.3026C31.3707 17.368 31.3987 17.4093 31.488 17.4093H32.2413L31.4773 21.5546C31.4326 21.8319 31.3644 22.1049 31.2733 22.3706C31.2201 22.5393 31.14 22.6982 31.036 22.8413C30.96 22.9502 30.8511 23.032 30.7253 23.0746C30.5957 23.1139 30.4608 23.1328 30.3253 23.1306C30.2331 23.1289 30.1412 23.119 30.0507 23.1013C29.9693 23.0866 29.928 23.068 29.868 23.0426C29.868 23.0426 29.7787 23.0093 29.744 23.096L29.492 23.7693C29.4693 23.8346 29.5013 23.8866 29.5453 23.9013C29.8036 23.9954 30.0771 24.0411 30.352 24.036C30.6653 24.036 30.9493 23.9933 31.1867 23.9093C31.424 23.8253 31.6333 23.6813 31.8133 23.4826C32.0133 23.2693 32.1373 23.0466 32.256 22.7426C32.39 22.3815 32.4904 22.0088 32.556 21.6293L33.3213 17.408H34.4413C34.4413 17.408 34.5373 17.412 34.556 17.3106L34.684 16.6226C34.692 16.5573 34.664 16.516 34.5733 16.516ZM20.0613 14.3933H19.16C19.1013 14.3933 19.0627 14.4373 19.0627 14.4933V21.5626C19.0627 21.616 19.1027 21.6626 19.16 21.6626H20.06C20.073 21.6625 20.0858 21.6597 20.0977 21.6546C20.1096 21.6495 20.1203 21.6421 20.1294 21.6328C20.1384 21.6235 20.1455 21.6125 20.1503 21.6005C20.1551 21.5885 20.1575 21.5756 20.1573 21.5626V14.4933C20.1577 14.4804 20.1555 14.4676 20.1508 14.4555C20.1462 14.4435 20.1392 14.4325 20.1303 14.4232C20.1213 14.4139 20.1106 14.4065 20.0988 14.4013C20.087 14.3962 20.0742 14.3935 20.0613 14.3933Z" fill="#FFFFFE"/>
</svg>
