<svg width="45" height="46" viewBox="0 0 45 46" fill="none" xmlns="http://www.w3.org/2000/svg">
<path d="M9.35504 28.8713C9.35504 31.5135 7.29418 33.6468 4.7435 33.6468C2.19282 33.6468 0.131958 31.5124 0.131958 28.8713C0.131958 26.2291 2.19282 24.0947 4.7435 24.0947H9.35504V28.8713ZM11.6608 28.8713C11.6608 26.2291 13.7217 24.0947 16.2712 24.0947C18.8219 24.0947 20.8828 26.2303 20.8828 28.8713V40.8105C20.8828 43.4527 18.8219 45.5871 16.2712 45.5871C13.7205 45.5871 11.6608 43.4527 11.6608 40.8117V28.8713Z" fill="#E01E5A"/>
<path d="M16.2712 9.69487C13.7206 9.69487 11.6597 7.56045 11.6597 4.91827C11.6597 2.27724 13.7206 0.142822 16.2712 0.142822C18.8219 0.142822 20.8828 2.27724 20.8828 4.91827V9.69487H16.2712ZM16.2712 12.1188C18.8219 12.1188 20.8828 14.2532 20.8828 16.8954C20.8828 19.5364 18.8208 21.6708 16.2712 21.6708H4.70853C2.15784 21.6708 0.0969849 19.5364 0.0969849 16.8954C0.0969849 14.2532 2.15784 12.1188 4.70853 12.1188H16.2712Z" fill="#36C5F0"/>
<path d="M34.7501 16.8954C34.7501 14.2532 36.8121 12.1188 39.3617 12.1188C41.9124 12.1188 43.9732 14.2532 43.9732 16.8954C43.9732 19.5364 41.9124 21.6708 39.3617 21.6708H34.7501V16.8954ZM32.4455 16.8954C32.4455 19.5364 30.3835 21.6708 27.834 21.6708C25.2833 21.6708 23.2224 19.5364 23.2224 16.8954V4.91827C23.2224 2.27724 25.2833 0.142822 27.834 0.142822C30.3846 0.142822 32.4455 2.27724 32.4455 4.91827V16.8954Z" fill="#2EB67D"/>
<path d="M27.834 36.0351C30.3846 36.0351 32.4455 38.1695 32.4455 40.8105C32.4455 43.4527 30.3835 45.5871 27.834 45.5871C25.2833 45.5871 23.2224 43.4527 23.2224 40.8117V36.0351H27.834ZM27.834 33.6468C25.2833 33.6468 23.2224 31.5124 23.2224 28.8713C23.2224 26.2291 25.2833 24.0947 27.834 24.0947H39.3967C41.9473 24.0947 44.0082 26.2303 44.0082 28.8713C44.0082 31.5135 41.9473 33.6468 39.3967 33.6468H27.834Z" fill="#ECB22E"/>
</svg>
