<svg width="51" height="42" viewBox="0 0 51 42" fill="none" xmlns="http://www.w3.org/2000/svg">
<path d="M45.2427 10.688C45.2733 11.1293 45.2733 11.5706 45.2733 12.016C45.2733 25.5853 34.944 41.2346 16.056 41.2346V41.2266C10.4758 41.2346 5.01112 39.6364 0.314667 36.6226C3.00319 36.9458 5.72906 36.7364 8.33662 36.0061C10.9442 35.2759 13.3824 34.0392 15.512 32.3666C13.3692 32.3262 11.2927 31.6172 9.57261 30.3387C7.85256 29.0602 6.57505 27.2761 5.91867 25.236C7.4572 25.5325 9.04328 25.4718 10.5547 25.0586C8.23062 24.5895 6.14048 23.3306 4.63902 21.4957C3.13755 19.6608 2.31725 17.3629 2.31733 14.992V14.8626C3.74545 15.6589 5.34426 16.0998 6.97867 16.148C4.80481 14.6952 3.26609 12.4688 2.67559 9.92178C2.08509 7.37473 2.48716 4.69839 3.8 2.43729C6.37808 5.60969 9.59468 8.20427 13.2409 10.0525C16.887 11.9008 20.8812 12.9613 24.964 13.1653C24.4544 10.9642 24.6841 8.65646 25.6176 6.59899C26.5512 4.54152 28.1365 2.8489 30.1285 1.78285C32.1206 0.716788 34.4083 0.336676 36.638 0.701286C38.8678 1.06589 40.9153 2.15491 42.464 3.79996C44.7633 3.34568 46.9683 2.50247 48.984 1.30662C48.2177 3.68437 46.6138 5.70285 44.4707 6.98662C46.506 6.74643 48.4936 6.20121 50.3667 5.36929C48.9888 7.43334 47.2536 9.23492 45.2427 10.6893V10.688Z" fill="#1D9BF0"/>
</svg>
