<svg width="60" height="64" viewBox="0 0 60 64" fill="none" xmlns="http://www.w3.org/2000/svg">
<g opacity="0.7" filter="url(#filter0_f_810_9234)">
<circle cx="29.9655" cy="29.1723" r="9.10345" fill="#E351FB"/>
</g>
<g filter="url(#filter1_d_810_9234)">
<path d="M17 25.0345C17 18.9403 21.9403 14 28.0345 14H29.6192C30.2675 14 30.7931 14.5256 30.7931 15.1739V29.1724C30.7931 32.9813 27.7054 36.069 23.8966 36.069C20.0877 36.069 17 32.9813 17 29.1724V25.0345Z" fill="#7000FF"/>
<path d="M44.5862 34.9655C44.5862 41.0597 39.6459 46 33.5517 46H31.967C31.3186 46 30.7931 45.4744 30.7931 44.8261V30.8276C30.7931 27.0187 33.8808 23.931 37.6896 23.931C41.4985 23.931 44.5862 27.0187 44.5862 30.8276V34.9655Z" fill="#5200FF"/>
</g>
<defs>
<filter id="filter0_f_810_9234" x="0.862061" y="0.0688477" width="58.2069" height="58.2069" filterUnits="userSpaceOnUse" color-interpolation-filters="sRGB">
<feFlood flood-opacity="0" result="BackgroundImageFix"/>
<feBlend mode="normal" in="SourceGraphic" in2="BackgroundImageFix" result="shape"/>
<feGaussianBlur stdDeviation="10" result="effect1_foregroundBlur_810_9234"/>
</filter>
<filter id="filter1_d_810_9234" x="3" y="4" width="55.5862" height="60" filterUnits="userSpaceOnUse" color-interpolation-filters="sRGB">
<feFlood flood-opacity="0" result="BackgroundImageFix"/>
<feColorMatrix in="SourceAlpha" type="matrix" values="0 0 0 0 0 0 0 0 0 0 0 0 0 0 0 0 0 0 127 0" result="hardAlpha"/>
<feOffset dy="4"/>
<feGaussianBlur stdDeviation="7"/>
<feComposite in2="hardAlpha" operator="out"/>
<feColorMatrix type="matrix" values="0 0 0 0 0.0900076 0 0 0 0 0.0568924 0 0 0 0 0.470833 0 0 0 0.15 0"/>
<feBlend mode="normal" in2="BackgroundImageFix" result="effect1_dropShadow_810_9234"/>
<feBlend mode="normal" in="SourceGraphic" in2="effect1_dropShadow_810_9234" result="shape"/>
</filter>
</defs>
</svg>
